<svg xmlns="http://www.w3.org/2000/svg" xmlns:xlink="http://www.w3.org/1999/xlink" contentStyleType="text/css" data-diagram-type="ACTIVITY" height="1637px" preserveAspectRatio="none" style="width:1484px;height:1637px;background:#FFFFFF;" version="1.1" viewBox="0 0 1484 1637" width="1484px" zoomAndPan="magnify"><title>&#1048;&#1085;&#1090;&#1077;&#1088;&#1085;&#1077;&#1090;-&#1084;&#1072;&#1075;&#1072;&#1079;&#1080;&#1085; &#8212; Activity: &#1054;&#1092;&#1086;&#1088;&#1084;&#1083;&#1077;&#1085;&#1080;&#1077; &#1079;&#1072;&#1082;&#1072;&#1079;&#1072; (&#1080;&#1076;&#1077;&#1072;&#1083;&#1100;&#1085;&#1099;&#1081; &#1074;&#1072;&#1088;&#1080;&#1072;&#1085;&#1090;)</title><defs/><g><g class="title" data-source-line="1"><text fill="#000000" font-family="sans-serif" font-size="14" font-weight="bold" lengthAdjust="spacing" textLength="585.7852" x="447.9324" y="32.9951">&#1048;&#1085;&#1090;&#1077;&#1088;&#1085;&#1077;&#1090;-&#1084;&#1072;&#1075;&#1072;&#1079;&#1080;&#1085; &#8212; Activity: &#1054;&#1092;&#1086;&#1088;&#1084;&#1083;&#1077;&#1085;&#1080;&#1077; &#1079;&#1072;&#1082;&#1072;&#1079;&#1072; (&#1080;&#1076;&#1077;&#1072;&#1083;&#1100;&#1085;&#1099;&#1081; &#1074;&#1072;&#1088;&#1080;&#1072;&#1085;&#1090;)</text></g><rect fill="none" height="20.9531" style="stroke:none;stroke-width:1;" width="1451.6499" x="15" y="50.042"/><ellipse cx="586.5332" cy="85.9951" fill="#222222" rx="10" ry="10" style="stroke:#222222;stroke-width:1;"/><rect fill="#F1F1F1" height="33.9688" rx="12.5" ry="12.5" style="stroke:#181818;stroke-width:0.5;" width="210.0898" x="481.4883" y="115.9951"/><text fill="#000000" font-family="sans-serif" font-size="12" lengthAdjust="spacing" textLength="190.0898" x="491.4883" y="137.1338">&#1053;&#1072;&#1081;&#1090;&#1080; &#1090;&#1086;&#1074;&#1072;&#1088; (&#1087;&#1086;&#1080;&#1089;&#1082;/&#1092;&#1080;&#1083;&#1100;&#1090;&#1088;&#1099;)</text><rect fill="#F1F1F1" height="33.9688" rx="12.5" ry="12.5" style="stroke:#181818;stroke-width:0.5;" width="114.3301" x="529.3682" y="169.9639"/><text fill="#000000" font-family="sans-serif" font-size="12" lengthAdjust="spacing" textLength="94.3301" x="539.3682" y="191.1025">&#1042;&#1099;&#1073;&#1088;&#1072;&#1090;&#1100; &#1090;&#1086;&#1074;&#1072;&#1088;</text><rect fill="#F1F1F1" height="33.9688" rx="12.5" ry="12.5" style="stroke:#181818;stroke-width:0.5;" width="146.4395" x="513.3135" y="223.9326"/><text fill="#000000" font-family="sans-serif" font-size="12" lengthAdjust="spacing" textLength="126.4395" x="523.3135" y="245.0713">&#1044;&#1086;&#1073;&#1072;&#1074;&#1080;&#1090;&#1100; &#1074; &#1082;&#1086;&#1088;&#1079;&#1080;&#1085;&#1091;</text><rect fill="#F1F1F1" height="33.9688" rx="12.5" ry="12.5" style="stroke:#181818;stroke-width:0.5;" width="171.2832" x="500.8916" y="277.9014"/><text fill="#000000" font-family="sans-serif" font-size="12" lengthAdjust="spacing" textLength="151.2832" x="510.8916" y="299.04">&#1055;&#1077;&#1088;&#1077;&#1081;&#1090;&#1080; &#1082; &#1086;&#1092;&#1086;&#1088;&#1084;&#1083;&#1077;&#1085;&#1080;&#1102;</text><rect fill="#F1F1F1" height="33.9688" rx="12.5" ry="12.5" style="stroke:#181818;stroke-width:0.5;" width="254.5215" x="216.9668" y="429.8389"/><text fill="#000000" font-family="sans-serif" font-size="12" lengthAdjust="spacing" textLength="234.5215" x="226.9668" y="450.9775">&#1042;&#1074;&#1077;&#1089;&#1090;&#1080; &#1076;&#1072;&#1085;&#1085;&#1099;&#1077; &#1076;&#1086;&#1089;&#1090;&#1072;&#1074;&#1082;&#1080; &#1080; &#1082;&#1086;&#1085;&#1090;&#1072;&#1082;&#1090;&#1099;</text><rect fill="#F1F1F1" height="33.9688" rx="12.5" ry="12.5" style="stroke:#181818;stroke-width:0.5;" width="171.5703" x="258.4424" y="483.8076"/><text fill="#000000" font-family="sans-serif" font-size="12" lengthAdjust="spacing" textLength="151.5703" x="268.4424" y="504.9463">&#1042;&#1099;&#1073;&#1088;&#1072;&#1090;&#1100; &#1089;&#1087;&#1086;&#1089;&#1086;&#1073; &#1086;&#1087;&#1083;&#1072;&#1090;&#1099;</text><rect fill="#F1F1F1" height="33.9688" rx="12.5" ry="12.5" style="stroke:#181818;stroke-width:0.5;" width="142.4141" x="273.0205" y="537.7764"/><text fill="#000000" font-family="sans-serif" font-size="12" lengthAdjust="spacing" textLength="122.4141" x="283.0205" y="558.915">&#1055;&#1086;&#1076;&#1090;&#1074;&#1077;&#1088;&#1076;&#1080;&#1090;&#1100; &#1079;&#1072;&#1082;&#1072;&#1079;</text><rect fill="#F1F1F1" height="33.9688" rx="12.5" ry="12.5" style="stroke:#181818;stroke-width:0.5;" width="139.3379" x="274.5586" y="755.3931"/><text fill="#000000" font-family="sans-serif" font-size="12" lengthAdjust="spacing" textLength="119.3379" x="284.5586" y="776.5317">&#1048;&#1089;&#1087;&#1088;&#1072;&#1074;&#1080;&#1090;&#1100; &#1076;&#1072;&#1085;&#1085;&#1099;&#1077;</text><rect fill="#F1F1F1" height="33.9688" rx="12.5" ry="12.5" style="stroke:#181818;stroke-width:0.5;" width="119.6973" x="284.3789" y="993.2681"/><text fill="#000000" font-family="sans-serif" font-size="12" lengthAdjust="spacing" textLength="99.6973" x="294.3789" y="1014.4067">&#1054;&#1087;&#1083;&#1072;&#1090;&#1080;&#1090;&#1100; &#1079;&#1072;&#1082;&#1072;&#1079;</text><rect fill="#F1F1F1" height="33.9688" rx="12.5" ry="12.5" style="stroke:#181818;stroke-width:0.5;" width="243.834" x="222.3105" y="1210.8848"/><text fill="#000000" font-family="sans-serif" font-size="12" lengthAdjust="spacing" textLength="223.834" x="232.3105" y="1232.0234">&#1055;&#1086;&#1087;&#1088;&#1086;&#1073;&#1086;&#1074;&#1072;&#1090;&#1100; &#1086;&#1087;&#1083;&#1072;&#1090;&#1080;&#1090;&#1100; &#1079;&#1072;&#1082;&#1072;&#1079; &#1089;&#1085;&#1086;&#1074;&#1072;</text><rect fill="#F1F1F1" height="47.9375" rx="12.5" ry="12.5" style="stroke:#181818;stroke-width:0.5;" width="185.9668" x="21" y="1394.3223"/><text fill="#000000" font-family="sans-serif" font-size="12" lengthAdjust="spacing" textLength="165.9668" x="31" y="1415.4609">&#1055;&#1086;&#1083;&#1091;&#1095;&#1080;&#1090;&#1100; &#1087;&#1086;&#1076;&#1090;&#1074;&#1077;&#1088;&#1078;&#1076;&#1077;&#1085;&#1080;&#1077;</text><text fill="#000000" font-family="sans-serif" font-size="12" lengthAdjust="spacing" textLength="96.7383" x="31" y="1429.4297">&#1080; &#1085;&#1086;&#1084;&#1077;&#1088; &#1079;&#1072;&#1082;&#1072;&#1079;&#1072;</text><line style="stroke:#000000;stroke-width:1.5;" x1="15" x2="15" y1="50.042" y2="1625.7285"/><rect fill="#F1F1F1" height="33.9688" rx="12.5" ry="12.5" style="stroke:#181818;stroke-width:0.5;" width="270.248" x="963.1899" y="331.8701"/><text fill="#000000" font-family="sans-serif" font-size="12" lengthAdjust="spacing" textLength="250.248" x="973.1899" y="353.0088">&#1055;&#1088;&#1086;&#1074;&#1077;&#1088;&#1080;&#1090;&#1100; &#1085;&#1072;&#1083;&#1080;&#1095;&#1080;&#1077; &#1080; &#1072;&#1082;&#1090;&#1091;&#1072;&#1083;&#1100;&#1085;&#1091;&#1102; &#1094;&#1077;&#1085;&#1091;</text><polygon fill="#F1F1F1" points="1049.5928,385.8389,1147.0352,385.8389,1159.0352,397.8389,1147.0352,409.8389,1049.5928,409.8389,1037.5928,397.8389,1049.5928,385.8389" style="stroke:#181818;stroke-width:0.5;"/><text fill="#000000" font-family="sans-serif" font-size="11" lengthAdjust="spacing" textLength="97.4424" x="1049.5928" y="401.647">&#1058;&#1086;&#1074;&#1072;&#1088; &#1076;&#1086;&#1089;&#1090;&#1091;&#1087;&#1077;&#1085;?</text><text fill="#000000" font-family="sans-serif" font-size="11" lengthAdjust="spacing" textLength="14.3462" x="1023.2466" y="395.2446">&#1076;&#1072;</text><text fill="#000000" font-family="sans-serif" font-size="11" lengthAdjust="spacing" textLength="20.3672" x="1159.0352" y="395.2446">&#1085;&#1077;&#1090;</text><rect fill="#F1F1F1" height="33.9688" rx="12.5" ry="12.5" style="stroke:#181818;stroke-width:0.5;" width="208.4961" x="747.2471" y="591.7451"/><text fill="#000000" font-family="sans-serif" font-size="12" lengthAdjust="spacing" textLength="188.4961" x="757.2471" y="612.8838">&#1042;&#1072;&#1083;&#1080;&#1076;&#1080;&#1088;&#1086;&#1074;&#1072;&#1090;&#1100; &#1076;&#1072;&#1085;&#1085;&#1099;&#1077; &#1079;&#1072;&#1082;&#1072;&#1079;&#1072;</text><rect fill="#F1F1F1" height="33.9688" rx="12.5" ry="12.5" style="stroke:#181818;stroke-width:0.5;" width="187.7246" x="757.6328" y="701.4243"/><text fill="#000000" font-family="sans-serif" font-size="12" lengthAdjust="spacing" textLength="167.7246" x="767.6328" y="722.563">&#1054;&#1090;&#1086;&#1073;&#1088;&#1072;&#1079;&#1080;&#1090;&#1100; &#1086;&#1096;&#1080;&#1073;&#1082;&#1080; &#1074;&#1074;&#1086;&#1076;&#1072;</text><rect fill="#F1F1F1" height="33.9688" rx="12.5" ry="12.5" style="stroke:#181818;stroke-width:0.5;" width="208.4961" x="747.2471" y="809.3618"/><text fill="#000000" font-family="sans-serif" font-size="12" lengthAdjust="spacing" textLength="188.4961" x="757.2471" y="830.5005">&#1042;&#1072;&#1083;&#1080;&#1076;&#1080;&#1088;&#1086;&#1074;&#1072;&#1090;&#1100; &#1076;&#1072;&#1085;&#1085;&#1099;&#1077; &#1079;&#1072;&#1082;&#1072;&#1079;&#1072;</text><polygon fill="#F1F1F1" points="792.7246,645.7139,910.2656,645.7139,922.2656,657.7139,910.2656,669.7139,792.7246,669.7139,780.7246,657.7139,792.7246,645.7139" style="stroke:#181818;stroke-width:0.5;"/><text fill="#000000" font-family="sans-serif" font-size="11" lengthAdjust="spacing" textLength="20.3672" x="855.4951" y="679.9243">&#1085;&#1077;&#1090;</text><text fill="#000000" font-family="sans-serif" font-size="11" lengthAdjust="spacing" textLength="117.541" x="792.7246" y="661.522">&#1044;&#1072;&#1085;&#1085;&#1099;&#1077; &#1082;&#1086;&#1088;&#1088;&#1077;&#1082;&#1090;&#1085;&#1099;?</text><text fill="#000000" font-family="sans-serif" font-size="11" lengthAdjust="spacing" textLength="14.3462" x="766.3784" y="655.1196">&#1076;&#1072;</text><rect fill="#F1F1F1" height="33.9688" rx="12.5" ry="12.5" style="stroke:#181818;stroke-width:0.5;" width="225.6055" x="738.6924" y="885.3306"/><text fill="#000000" font-family="sans-serif" font-size="12" lengthAdjust="spacing" textLength="205.6055" x="748.6924" y="906.4692">&#1057;&#1086;&#1079;&#1076;&#1072;&#1090;&#1100; &#1079;&#1072;&#1082;&#1072;&#1079; (&#1089;&#1090;&#1072;&#1090;&#1091;&#1089; "&#1057;&#1086;&#1079;&#1076;&#1072;&#1085;")</text><rect fill="#F1F1F1" height="33.9688" rx="12.5" ry="12.5" style="stroke:#181818;stroke-width:0.5;" width="159.9512" x="771.5195" y="939.2993"/><text fill="#000000" font-family="sans-serif" font-size="12" lengthAdjust="spacing" textLength="139.9512" x="781.5195" y="960.438">&#1048;&#1085;&#1080;&#1094;&#1080;&#1080;&#1088;&#1086;&#1074;&#1072;&#1090;&#1100; &#1086;&#1087;&#1083;&#1072;&#1090;&#1091;</text><rect fill="#F1F1F1" height="33.9688" rx="12.5" ry="12.5" style="stroke:#181818;stroke-width:0.5;" width="143.082" x="779.9541" y="1047.2368"/><text fill="#000000" font-family="sans-serif" font-size="12" lengthAdjust="spacing" textLength="123.082" x="789.9541" y="1068.3755">&#1054;&#1073;&#1088;&#1072;&#1073;&#1086;&#1090;&#1072;&#1090;&#1100; &#1086;&#1087;&#1083;&#1072;&#1090;&#1091;</text><rect fill="#F1F1F1" height="33.9688" rx="12.5" ry="12.5" style="stroke:#181818;stroke-width:0.5;" width="204.6406" x="749.1748" y="1156.916"/><text fill="#000000" font-family="sans-serif" font-size="12" lengthAdjust="spacing" textLength="184.6406" x="759.1748" y="1178.0547">&#1057;&#1086;&#1086;&#1073;&#1097;&#1080;&#1090;&#1100; &#1086;&#1073; &#1086;&#1096;&#1080;&#1073;&#1082;&#1077; &#1086;&#1087;&#1083;&#1072;&#1090;&#1099;</text><rect fill="#F1F1F1" height="33.9688" rx="12.5" ry="12.5" style="stroke:#181818;stroke-width:0.5;" width="143.082" x="779.9541" y="1264.8535"/><text fill="#000000" font-family="sans-serif" font-size="12" lengthAdjust="spacing" textLength="123.082" x="789.9541" y="1285.9922">&#1054;&#1073;&#1088;&#1072;&#1073;&#1086;&#1090;&#1072;&#1090;&#1100; &#1086;&#1087;&#1083;&#1072;&#1090;&#1091;</text><polygon fill="#F1F1F1" points="800.1851,1101.2056,902.8052,1101.2056,914.8052,1113.2056,902.8052,1125.2056,800.1851,1125.2056,788.1851,1113.2056,800.1851,1101.2056" style="stroke:#181818;stroke-width:0.5;"/><text fill="#000000" font-family="sans-serif" font-size="11" lengthAdjust="spacing" textLength="20.3672" x="855.4951" y="1135.416">&#1085;&#1077;&#1090;</text><text fill="#000000" font-family="sans-serif" font-size="11" lengthAdjust="spacing" textLength="102.6201" x="800.1851" y="1117.0137">&#1054;&#1087;&#1083;&#1072;&#1090;&#1072; &#1091;&#1089;&#1087;&#1077;&#1096;&#1085;&#1072;?</text><text fill="#000000" font-family="sans-serif" font-size="11" lengthAdjust="spacing" textLength="14.3462" x="773.8389" y="1110.6113">&#1076;&#1072;</text><rect fill="#555555" height="6" rx="2.5" ry="2.5" style="stroke:#555555;stroke-width:1;" width="507.8984" x="701.5781" y="1340.8223"/><rect fill="#F1F1F1" height="33.9688" rx="12.5" ry="12.5" style="stroke:#181818;stroke-width:0.5;" width="260.7969" x="723.9121" y="1366.8223"/><text fill="#000000" font-family="sans-serif" font-size="12" lengthAdjust="spacing" textLength="240.7969" x="733.9121" y="1387.9609">&#1054;&#1073;&#1085;&#1086;&#1074;&#1080;&#1090;&#1100; &#1089;&#1090;&#1072;&#1090;&#1091;&#1089; &#1079;&#1072;&#1082;&#1072;&#1079;&#1072; &#1085;&#1072; "&#1054;&#1087;&#1083;&#1072;&#1095;&#1077;&#1085;"</text><rect fill="#F1F1F1" height="33.9688" rx="12.5" ry="12.5" style="stroke:#181818;stroke-width:0.5;" width="265.6602" x="721.4805" y="1435.791"/><text fill="#000000" font-family="sans-serif" font-size="12" lengthAdjust="spacing" textLength="245.6602" x="731.4805" y="1456.9297">&#1057;&#1092;&#1086;&#1088;&#1084;&#1080;&#1088;&#1086;&#1074;&#1072;&#1090;&#1100; &#1087;&#1086;&#1076;&#1090;&#1074;&#1077;&#1088;&#1078;&#1076;&#1077;&#1085;&#1080;&#1077; &#1079;&#1072;&#1082;&#1072;&#1079;&#1072;</text><rect fill="#F1F1F1" height="47.9375" rx="12.5" ry="12.5" style="stroke:#181818;stroke-width:0.5;" width="180.3359" x="1015.1406" y="1394.3223"/><text fill="#000000" font-family="sans-serif" font-size="12" lengthAdjust="spacing" textLength="156.3281" x="1025.1406" y="1415.4609">&#1054;&#1090;&#1087;&#1088;&#1072;&#1074;&#1080;&#1090;&#1100; &#1091;&#1074;&#1077;&#1076;&#1086;&#1084;&#1083;&#1077;&#1085;&#1080;&#1077;</text><text fill="#000000" font-family="sans-serif" font-size="12" lengthAdjust="spacing" textLength="160.3359" x="1025.1406" y="1429.4297">&#1086; &#1085;&#1086;&#1074;&#1086;&#1084; &#1079;&#1072;&#1082;&#1072;&#1079;&#1077; &#1087;&#1088;&#1086;&#1076;&#1072;&#1074;&#1094;&#1091;</text><rect fill="#555555" height="6" rx="2.5" ry="2.5" style="stroke:#555555;stroke-width:1;" width="507.8984" x="701.5781" y="1489.7598"/><rect fill="#F1F1F1" height="33.9688" rx="12.5" ry="12.5" style="stroke:#181818;stroke-width:0.5;" width="202.8418" x="750.0742" y="1515.7598"/><text fill="#000000" font-family="sans-serif" font-size="12" lengthAdjust="spacing" textLength="182.8418" x="760.0742" y="1536.8984">&#1047;&#1072;&#1082;&#1088;&#1099;&#1090;&#1100; &#1086;&#1092;&#1086;&#1088;&#1084;&#1083;&#1077;&#1085;&#1080;&#1077; &#1079;&#1072;&#1082;&#1072;&#1079;&#1072;</text><rect fill="#F1F1F1" height="33.9688" rx="12.5" ry="12.5" style="stroke:#181818;stroke-width:0.5;" width="231.3125" x="1229.4766" y="429.8389"/><text fill="#000000" font-family="sans-serif" font-size="12" lengthAdjust="spacing" textLength="211.3125" x="1239.4766" y="450.9775">&#1057;&#1086;&#1086;&#1073;&#1097;&#1080;&#1090;&#1100;, &#1095;&#1090;&#1086; &#1090;&#1086;&#1074;&#1072;&#1088; &#1085;&#1077;&#1076;&#1086;&#1089;&#1090;&#1091;&#1087;&#1077;&#1085;</text><polygon fill="#F1F1F1" points="1098.314,1559.7285,1110.314,1571.7285,1098.314,1583.7285,1086.314,1571.7285,1098.314,1559.7285" style="stroke:#181818;stroke-width:0.5;"/><ellipse cx="1098.314" cy="1614.7285" fill="none" rx="11" ry="11" style="stroke:#222222;stroke-width:1;"/><ellipse cx="1098.314" cy="1614.7285" fill="#222222" rx="6" ry="6" style="stroke:#222222;stroke-width:1;"/><line style="stroke:#000000;stroke-width:1.5;" x1="695.5781" x2="695.5781" y1="50.042" y2="1625.7285"/><line style="stroke:#000000;stroke-width:1.5;" x1="1464.7891" x2="1464.7891" y1="50.042" y2="1625.7285"/><line style="stroke:#181818;stroke-width:1;" x1="586.5332" x2="586.5332" y1="95.9951" y2="115.9951"/><polygon fill="#181818" points="582.5332,105.9951,586.5332,115.9951,590.5332,105.9951,586.5332,109.9951" style="stroke:#181818;stroke-width:1;"/><line style="stroke:#181818;stroke-width:1;" x1="586.5332" x2="586.5332" y1="149.9639" y2="169.9639"/><polygon fill="#181818" points="582.5332,159.9639,586.5332,169.9639,590.5332,159.9639,586.5332,163.9639" style="stroke:#181818;stroke-width:1;"/><line style="stroke:#181818;stroke-width:1;" x1="586.5332" x2="586.5332" y1="203.9326" y2="223.9326"/><polygon fill="#181818" points="582.5332,213.9326,586.5332,223.9326,590.5332,213.9326,586.5332,217.9326" style="stroke:#181818;stroke-width:1;"/><line style="stroke:#181818;stroke-width:1;" x1="586.5332" x2="586.5332" y1="257.9014" y2="277.9014"/><polygon fill="#181818" points="582.5332,267.9014,586.5332,277.9014,590.5332,267.9014,586.5332,271.9014" style="stroke:#181818;stroke-width:1;"/><line style="stroke:#181818;stroke-width:1;" x1="344.2275" x2="344.2275" y1="463.8076" y2="483.8076"/><polygon fill="#181818" points="340.2275,473.8076,344.2275,483.8076,348.2275,473.8076,344.2275,477.8076" style="stroke:#181818;stroke-width:1;"/><line style="stroke:#181818;stroke-width:1;" x1="344.2275" x2="344.2275" y1="517.7764" y2="537.7764"/><polygon fill="#181818" points="340.2275,527.7764,344.2275,537.7764,348.2275,527.7764,344.2275,531.7764" style="stroke:#181818;stroke-width:1;"/><line style="stroke:#181818;stroke-width:1;" x1="851.4951" x2="851.4951" y1="669.7139" y2="701.4243"/><polygon fill="#181818" points="847.4951,691.4243,851.4951,701.4243,855.4951,691.4243,851.4951,695.4243" style="stroke:#181818;stroke-width:1;"/><line style="stroke:#181818;stroke-width:1;" x1="851.4951" x2="851.4951" y1="843.3306" y2="853.3306"/><line style="stroke:#181818;stroke-width:1;" x1="851.4951" x2="967.7432" y1="853.3306" y2="853.3306"/><polygon fill="#181818" points="963.7432,763.9751,967.7432,753.9751,971.7432,763.9751,967.7432,759.9751" style="stroke:#181818;stroke-width:1;"/><line style="stroke:#181818;stroke-width:1;" x1="967.7432" x2="967.7432" y1="657.7139" y2="853.3306"/><line style="stroke:#181818;stroke-width:1;" x1="967.7432" x2="922.2656" y1="657.7139" y2="657.7139"/><polygon fill="#181818" points="932.2656,653.7139,922.2656,657.7139,932.2656,661.7139,928.2656,657.7139" style="stroke:#181818;stroke-width:1;"/><line style="stroke:#181818;stroke-width:1;" x1="780.7246" x2="735.2471" y1="657.7139" y2="657.7139"/><polygon fill="#181818" points="731.2471,749.9751,735.2471,759.9751,739.2471,749.9751,735.2471,753.9751" style="stroke:#181818;stroke-width:1;"/><line style="stroke:#181818;stroke-width:1;" x1="735.2471" x2="735.2471" y1="657.7139" y2="865.3306"/><line style="stroke:#181818;stroke-width:1;" x1="735.2471" x2="851.4951" y1="865.3306" y2="865.3306"/><line style="stroke:#181818;stroke-width:1;" x1="851.4951" x2="851.4951" y1="865.3306" y2="885.3306"/><polygon fill="#181818" points="847.4951,875.3306,851.4951,885.3306,855.4951,875.3306,851.4951,879.3306" style="stroke:#181818;stroke-width:1;"/><line style="stroke:#181818;stroke-width:1;" x1="851.4951" x2="851.4951" y1="625.7139" y2="645.7139"/><polygon fill="#181818" points="847.4951,635.7139,851.4951,645.7139,855.4951,635.7139,851.4951,639.7139" style="stroke:#181818;stroke-width:1;"/><line style="stroke:#181818;stroke-width:1;" x1="851.4951" x2="851.4951" y1="919.2993" y2="939.2993"/><polygon fill="#181818" points="847.4951,929.2993,851.4951,939.2993,855.4951,929.2993,851.4951,933.2993" style="stroke:#181818;stroke-width:1;"/><line style="stroke:#181818;stroke-width:1;" x1="851.4951" x2="851.4951" y1="1125.2056" y2="1156.916"/><polygon fill="#181818" points="847.4951,1146.916,851.4951,1156.916,855.4951,1146.916,851.4951,1150.916" style="stroke:#181818;stroke-width:1;"/><line style="stroke:#181818;stroke-width:1;" x1="851.4951" x2="851.4951" y1="1298.8223" y2="1308.8223"/><line style="stroke:#181818;stroke-width:1;" x1="851.4951" x2="985.4121" y1="1308.8223" y2="1308.8223"/><polygon fill="#181818" points="981.4121,1219.4668,985.4121,1209.4668,989.4121,1219.4668,985.4121,1215.4668" style="stroke:#181818;stroke-width:1;"/><line style="stroke:#181818;stroke-width:1;" x1="985.4121" x2="985.4121" y1="1113.2056" y2="1308.8223"/><line style="stroke:#181818;stroke-width:1;" x1="985.4121" x2="914.8052" y1="1113.2056" y2="1113.2056"/><polygon fill="#181818" points="924.8052,1109.2056,914.8052,1113.2056,924.8052,1117.2056,920.8052,1113.2056" style="stroke:#181818;stroke-width:1;"/><line style="stroke:#181818;stroke-width:1;" x1="788.1851" x2="717.5781" y1="1113.2056" y2="1113.2056"/><polygon fill="#181818" points="713.5781,1205.4668,717.5781,1215.4668,721.5781,1205.4668,717.5781,1209.4668" style="stroke:#181818;stroke-width:1;"/><line style="stroke:#181818;stroke-width:1;" x1="717.5781" x2="717.5781" y1="1113.2056" y2="1320.8223"/><line style="stroke:#181818;stroke-width:1;" x1="717.5781" x2="851.4951" y1="1320.8223" y2="1320.8223"/><line style="stroke:#181818;stroke-width:1;" x1="851.4951" x2="851.4951" y1="1320.8223" y2="1340.8223"/><polygon fill="#181818" points="847.4951,1330.8223,851.4951,1340.8223,855.4951,1330.8223,851.4951,1334.8223" style="stroke:#181818;stroke-width:1;"/><line style="stroke:#181818;stroke-width:1;" x1="851.4951" x2="851.4951" y1="1081.2056" y2="1101.2056"/><polygon fill="#181818" points="847.4951,1091.2056,851.4951,1101.2056,855.4951,1091.2056,851.4951,1095.2056" style="stroke:#181818;stroke-width:1;"/><line style="stroke:#181818;stroke-width:1;" x1="854.3105" x2="854.3105" y1="1400.791" y2="1435.791"/><polygon fill="#181818" points="850.3105,1425.791,854.3105,1435.791,858.3105,1425.791,854.3105,1429.791" style="stroke:#181818;stroke-width:1;"/><line style="stroke:#181818;stroke-width:1;" x1="854.3105" x2="854.3105" y1="1346.8223" y2="1366.8223"/><polygon fill="#181818" points="850.3105,1356.8223,854.3105,1366.8223,858.3105,1356.8223,854.3105,1360.8223" style="stroke:#181818;stroke-width:1;"/><line style="stroke:#181818;stroke-width:1;" x1="1105.3086" x2="1105.3086" y1="1346.8223" y2="1394.3223"/><polygon fill="#181818" points="1101.3086,1384.3223,1105.3086,1394.3223,1109.3086,1384.3223,1105.3086,1388.3223" style="stroke:#181818;stroke-width:1;"/><line style="stroke:#181818;stroke-width:1;" x1="854.3105" x2="854.3105" y1="1469.7598" y2="1489.7598"/><polygon fill="#181818" points="850.3105,1479.7598,854.3105,1489.7598,858.3105,1479.7598,854.3105,1483.7598" style="stroke:#181818;stroke-width:1;"/><line style="stroke:#181818;stroke-width:1;" x1="1105.3086" x2="1105.3086" y1="1442.2598" y2="1489.7598"/><polygon fill="#181818" points="1101.3086,1479.7598,1105.3086,1489.7598,1109.3086,1479.7598,1105.3086,1483.7598" style="stroke:#181818;stroke-width:1;"/><line style="stroke:#181818;stroke-width:1;" x1="851.4951" x2="851.4951" y1="1495.7598" y2="1515.7598"/><polygon fill="#181818" points="847.4951,1505.7598,851.4951,1515.7598,855.4951,1505.7598,851.4951,1509.7598" style="stroke:#181818;stroke-width:1;"/><line style="stroke:#181818;stroke-width:1;" x1="1159.0352" x2="1345.1328" y1="397.8389" y2="397.8389"/><line style="stroke:#181818;stroke-width:1;" x1="1345.1328" x2="1345.1328" y1="397.8389" y2="429.8389"/><polygon fill="#181818" points="1341.1328,419.8389,1345.1328,429.8389,1349.1328,419.8389,1345.1328,423.8389" style="stroke:#181818;stroke-width:1;"/><line style="stroke:#181818;stroke-width:1;" x1="851.4951" x2="851.4951" y1="1549.7285" y2="1571.7285"/><line style="stroke:#181818;stroke-width:1;" x1="851.4951" x2="1086.314" y1="1571.7285" y2="1571.7285"/><polygon fill="#181818" points="1076.314,1567.7285,1086.314,1571.7285,1076.314,1575.7285,1080.314,1571.7285" style="stroke:#181818;stroke-width:1;"/><line style="stroke:#181818;stroke-width:1;" x1="1345.1328" x2="1345.1328" y1="463.8076" y2="1571.7285"/><line style="stroke:#181818;stroke-width:1;" x1="1345.1328" x2="1110.314" y1="1571.7285" y2="1571.7285"/><polygon fill="#181818" points="1120.314,1567.7285,1110.314,1571.7285,1120.314,1575.7285,1116.314,1571.7285" style="stroke:#181818;stroke-width:1;"/><line style="stroke:#181818;stroke-width:1;" x1="1098.314" x2="1098.314" y1="365.8389" y2="385.8389"/><polygon fill="#181818" points="1094.314,375.8389,1098.314,385.8389,1102.314,375.8389,1098.314,379.8389" style="stroke:#181818;stroke-width:1;"/><line style="stroke:#181818;stroke-width:1;" x1="1098.314" x2="1098.314" y1="1583.7285" y2="1603.7285"/><polygon fill="#181818" points="1094.314,1593.7285,1098.314,1603.7285,1102.314,1593.7285,1098.314,1597.7285" style="stroke:#181818;stroke-width:1;"/><line style="stroke:#181818;stroke-width:1;" x1="586.5332" x2="586.5332" y1="311.8701" y2="316.8701"/><line style="stroke:#181818;stroke-width:1;" x1="586.5332" x2="1098.314" y1="316.8701" y2="316.8701"/><line style="stroke:#181818;stroke-width:1;" x1="1098.314" x2="1098.314" y1="316.8701" y2="331.8701"/><polygon fill="#181818" points="1094.314,321.8701,1098.314,331.8701,1102.314,321.8701,1098.314,325.8701" style="stroke:#181818;stroke-width:1;"/><line style="stroke:#181818;stroke-width:1;" x1="344.2275" x2="344.2275" y1="571.7451" y2="576.7451"/><line style="stroke:#181818;stroke-width:1;" x1="344.2275" x2="851.4951" y1="576.7451" y2="576.7451"/><line style="stroke:#181818;stroke-width:1;" x1="851.4951" x2="851.4951" y1="576.7451" y2="591.7451"/><polygon fill="#181818" points="847.4951,581.7451,851.4951,591.7451,855.4951,581.7451,851.4951,585.7451" style="stroke:#181818;stroke-width:1;"/><line style="stroke:#181818;stroke-width:1;" x1="851.4951" x2="851.4951" y1="735.3931" y2="740.3931"/><line style="stroke:#181818;stroke-width:1;" x1="851.4951" x2="344.2275" y1="740.3931" y2="740.3931"/><line style="stroke:#181818;stroke-width:1;" x1="344.2275" x2="344.2275" y1="740.3931" y2="755.3931"/><polygon fill="#181818" points="340.2275,745.3931,344.2275,755.3931,348.2275,745.3931,344.2275,749.3931" style="stroke:#181818;stroke-width:1;"/><line style="stroke:#181818;stroke-width:1;" x1="344.2275" x2="344.2275" y1="789.3618" y2="794.3618"/><line style="stroke:#181818;stroke-width:1;" x1="344.2275" x2="851.4951" y1="794.3618" y2="794.3618"/><line style="stroke:#181818;stroke-width:1;" x1="851.4951" x2="851.4951" y1="794.3618" y2="809.3618"/><polygon fill="#181818" points="847.4951,799.3618,851.4951,809.3618,855.4951,799.3618,851.4951,803.3618" style="stroke:#181818;stroke-width:1;"/><line style="stroke:#181818;stroke-width:1;" x1="851.4951" x2="851.4951" y1="973.2681" y2="978.2681"/><line style="stroke:#181818;stroke-width:1;" x1="851.4951" x2="344.2275" y1="978.2681" y2="978.2681"/><line style="stroke:#181818;stroke-width:1;" x1="344.2275" x2="344.2275" y1="978.2681" y2="993.2681"/><polygon fill="#181818" points="340.2275,983.2681,344.2275,993.2681,348.2275,983.2681,344.2275,987.2681" style="stroke:#181818;stroke-width:1;"/><line style="stroke:#181818;stroke-width:1;" x1="344.2275" x2="344.2275" y1="1027.2368" y2="1032.2368"/><line style="stroke:#181818;stroke-width:1;" x1="344.2275" x2="851.4951" y1="1032.2368" y2="1032.2368"/><line style="stroke:#181818;stroke-width:1;" x1="851.4951" x2="851.4951" y1="1032.2368" y2="1047.2368"/><polygon fill="#181818" points="847.4951,1037.2368,851.4951,1047.2368,855.4951,1037.2368,851.4951,1041.2368" style="stroke:#181818;stroke-width:1;"/><line style="stroke:#181818;stroke-width:1;" x1="851.4951" x2="851.4951" y1="1190.8848" y2="1195.8848"/><line style="stroke:#181818;stroke-width:1;" x1="851.4951" x2="344.2275" y1="1195.8848" y2="1195.8848"/><line style="stroke:#181818;stroke-width:1;" x1="344.2275" x2="344.2275" y1="1195.8848" y2="1210.8848"/><polygon fill="#181818" points="340.2275,1200.8848,344.2275,1210.8848,348.2275,1200.8848,344.2275,1204.8848" style="stroke:#181818;stroke-width:1;"/><line style="stroke:#181818;stroke-width:1;" x1="344.2275" x2="344.2275" y1="1244.8535" y2="1249.8535"/><line style="stroke:#181818;stroke-width:1;" x1="344.2275" x2="851.4951" y1="1249.8535" y2="1249.8535"/><line style="stroke:#181818;stroke-width:1;" x1="851.4951" x2="851.4951" y1="1249.8535" y2="1264.8535"/><polygon fill="#181818" points="847.4951,1254.8535,851.4951,1264.8535,855.4951,1254.8535,851.4951,1258.8535" style="stroke:#181818;stroke-width:1;"/><line style="stroke:#181818;stroke-width:1;" x1="708.5781" x2="708.5781" y1="1346.8223" y2="1350.8223"/><line style="stroke:#181818;stroke-width:1;" x1="708.5781" x2="113.9834" y1="1350.8223" y2="1350.8223"/><line style="stroke:#181818;stroke-width:1;" x1="113.9834" x2="113.9834" y1="1350.8223" y2="1394.3223"/><polygon fill="#181818" points="109.9834,1384.3223,113.9834,1394.3223,117.9834,1384.3223,113.9834,1388.3223" style="stroke:#181818;stroke-width:1;"/><line style="stroke:#181818;stroke-width:1;" x1="113.9834" x2="113.9834" y1="1442.2598" y2="1475.7598"/><line style="stroke:#181818;stroke-width:1;" x1="113.9834" x2="708.5781" y1="1475.7598" y2="1475.7598"/><line style="stroke:#181818;stroke-width:1;" x1="708.5781" x2="708.5781" y1="1475.7598" y2="1489.7598"/><polygon fill="#181818" points="704.5781,1479.7598,708.5781,1489.7598,712.5781,1479.7598,708.5781,1483.7598" style="stroke:#181818;stroke-width:1;"/><line style="stroke:#181818;stroke-width:1;" x1="1037.5928" x2="344.2275" y1="397.8389" y2="397.8389"/><line style="stroke:#181818;stroke-width:1;" x1="344.2275" x2="344.2275" y1="397.8389" y2="429.8389"/><polygon fill="#181818" points="340.2275,419.8389,344.2275,429.8389,348.2275,419.8389,344.2275,423.8389" style="stroke:#181818;stroke-width:1;"/><text fill="#000000" font-family="sans-serif" font-size="18" lengthAdjust="spacing" textLength="112.5439" x="299.0171" y="66.75">&#1055;&#1086;&#1082;&#1091;&#1087;&#1072;&#1090;&#1077;&#1083;&#1100;</text><text fill="#000000" font-family="sans-serif" font-size="18" lengthAdjust="spacing" textLength="80.332" x="1040.0176" y="66.75">&#1057;&#1080;&#1089;&#1090;&#1077;&#1084;&#1072;</text><!--SRC=[fLRDZj9G5DxtAMvOGQ9nJnV6zt1359p62ME6HZC92tuCQ9ZCmamY6vde4nHijGEqlCAvh-2J-9rpsz9MYemoePdUy_UTxtptNbp7FMyhcbEaHnJe0KLuZXxJbZpwZkzF2YbIlmQtwjaBrtdhk5TDHGlzdcBuRcb30I922XGyFLfBXAVgMF9XycYZhv5wHlUALkGX9iGYQZKigqzt5DDQZsa72wgpSz_gkQrBrshI5pZUOpbKUCGc6ebt-3_KGre_0OYGG_H83_IiOIFc4oejKGJfz7KkZcstU5aYvmhXRAML0bvkGthKOtQw4mw2f32j5HnAlUeRcx5_PHI26bJrEHHEN8uJ91KY9W0lKyCG4e8YcCOPCMDze_I44tDzo-cWmszPj-0mvY924NoUDfHxrkx2noSF32fyAbXa4_WGF4FJZC_Cop22BBFmiMPhA6o830p8cPqcAP8wv17W2JR13busOidS6OwFB8O9F-KYauUTuYunc28MoYHka10XyGNqEQqbwTwTET1n7LFEkSbuPPveY1T1eDE3buYy8O6cx4Aq8bso74p9M7y0agNXPuM_c57OMTWHwatMEPCbEJFHvTh89ph0nJ_pmO7jxikKaRrKcYWJmyTFSsHXgcx4m5BJGrNREr9KQwIJdOly9q1Jmh9NmTW-GPMBrFs1sbWa0rfYCgFgscdZ-pAUuhPu3s6Ys9GLCZWo1kQ3zV4nquQeFnD8S60hd2GHDk-4pUL1Hl-WY3TWP5nF4j3VIQlKI-VYylN3Ejc0vsaAULSu27x8XI1tnVCkRoXkOikc0_BboghrgkLqJsmneIHCZgYSbWlt4WyVwawLCML4DJi_v-oqBqcyifd_Hu_5uY41Zb66Z-Zy3GlMOfNq2KE-Ba0O3V66NUb9RgfcYCTsrMSvxt63feVUyRiTcwnztciNTqz5wjAkUQJqbC_P_8NEMShNd6q1kDEny5FWuirl]--></g></svg>